<?xml version="1.0" encoding="utf-8"?>
<!-- Generator: Adobe Illustrator 24.0.3, SVG Export Plug-In . SVG Version: 6.00 Build 0)  -->
<svg version="1.1" id="Layer_1" xmlns="http://www.w3.org/2000/svg" xmlns:xlink="http://www.w3.org/1999/xlink" x="0px" y="0px"
	 viewBox="0 0 1500 1160" style="enable-background:new 0 0 1500 1160;" xml:space="preserve">
<style type="text/css">
	.st0{fill:#1595BA;}
	.st1{fill:#012466;}
</style>
<g>
	<path class="st0" d="M979.6,779.3c-2.2-2.8-75.6-8.6-105.4-10.2c0.2-11.9,4.8-16.5,3.8-31.2c-1-16.1-6.3-35.3-9-53.4
		c-2.7-18.1-1.5-24.8,2.9-28.6c4.4-3.8,25.2-24.8,39-39c13.8-14.2,20.2-26.9,18.8-45.5c-1.5-18.6-8.1-38.4-12.9-62.8
		c-4.8-24.4-10.8-61.7-20-76.8c-9.2-15-28.6-23.8-47.6-35c-19-11.3-19.6-19.4-21.5-21.7c-1.9-2.3-12.9-3.5-14.8-8.8
		c-1.9-5.2-2.1-14.2-0.4-18.1c1.7-4,8.1-7.1,10.2-12.9c2.1-5.8,1.5-16.3,1.3-20c-0.2-3.8,3.8-21.3-0.4-33.2
		c-4.2-11.9-14.6-26.1-38.4-29.8s-40.3,9-44.8,22.9c-4.6,14-6,40-0.8,65.5c5.2,25.4,21.3,42.1,22.3,44c1,1.9-0.8,5.2-4.4,10
		c-3.5,4.8-5.6,10.4-7.1,12.7c-1.5,2.3-11.3,6.5-19,14c-7.7,7.5-9.8,17.7-12.5,17.7c-2.7,0-7.1-2.7-6.3-12.7s2.7-41.9-3.3-76.3
		c-6-34.4-21.9-57.8-59-52.8c-37.1,5-36.9,59-40.3,83.2c-3.3,24.2-8.6,50.5-12.3,51.7c-3.8,1.3-13.6-0.2-21.7,6.5
		s-23.8,32.5-29.2,50.5c-5.4,17.9-1.9,35-5.8,51.7c-4,16.7-14.8,37.1-10.4,67c4.4,29.8,28,76.8,28,76.8s-3.5,27.7,2.9,52.8
		c4.2,16.2,9.2,27.9,12.3,34.2c-27.3,2.4-91.8,7.8-91.8,7.8s-1.5,2.6,0.9,2.6c1,0,54.3,0,178.3,0c0.9-14.7,2.4-41.5,2.1-63.6
		c-0.4-32.1-4.6-50.1-7.9-59.2c-3.3-9.2-14.6-21.1-22.1-48.4c-7.5-27.3-6.7-58.8-6.7-58.8s-29-25.4-34-31.3c-5-5.8-2.1-7.5-0.6-6.5
		c1.5,1-4.4-8.6,1-7.7c5.4,0.8,17.7,15.4,28,18.8c10.2,3.3,11.1-3.1,11.5-10c0.4-6.9,4-14.6,8.1-12.3c4.2,2.3-1.3,32.1,1.3,41.3
		c2.5,9.2,14.6,34.2,25.9,54.9c11.3,20.7,26.5,40,28.4,42.1c1.9,2.1,9.4-8.8,9.4-11.5c0-2.7-8.6-9-14-17.3c-5.4-8.3-0.2-13.3,0-14
		c0.2-0.6-6.5-28.2,10.6-46.9c17.1-18.8,38.6-18.4,54.4-5.8c15.9,12.5,11.5,47.6,12.3,49.6c0.8,2.1,5.8-0.2,4.8,7.7
		c-1,7.9-12.3,16.5-12.9,19.2s-1.3,8.1-0.6,11.5c0.6,3.3,6,4.4,8.6,3.5c2.5-0.8,26.3-25.9,34-42.8c7.7-16.9,16.7-41.7,19.4-47.6
		c2.7-5.8,2.1-38.6,4.2-42.8c2.1-4.2,6-3.5,5.8,3.3c-0.2,6.9,1,10.6,1.7,11.3s5,2.1,12.7-6.5c7.7-8.6,13.1-18.1,15.9-17.9
		c2.7,0.2-1,6.5-2.1,9.6s8.8-6.9,10.2-4.4c1.5,2.5-4.4,12.7-4.6,15.2c-0.2,2.5-22.7,26.7-26.1,32.1c-3.3,5.4-0.4,29.6-5.8,45.7
		c-5.4,16.1-17.7,33.2-17.7,35c0,1.9-5,21.5-12.5,36.1c-7.5,14.6-17.5,24.4-18.1,26.1c-0.5,1.4-4.8,69.2-6.3,92.2
		c124,0,181.2,0,200.4,0C980.2,782.2,979.8,779.6,979.6,779.3z M582.7,592.6c-4.7,8.3-16.6,30.2-17.4,27.5
		c-0.9-2.7-2.2-18.1-0.2-23.7c2-5.6,18.6-53.5,18.6-53.5C586.3,543,587.4,584.4,582.7,592.6z"/>
	<g>
		<g>
			<polygon class="st0" points="64.7,1112.8 32.3,1038.7 13.1,1136.8 25.2,1136.8 36.2,1074.6 36.5,1074.6 64.7,1138.8 92.9,1074.6 
				93.1,1074.6 104.1,1136.8 116.2,1136.8 97,1038.7 			"/>
			<path class="st0" d="M295.3,1055.1c-4.5-4.5-9.8-8.1-15.8-10.6c-6-2.5-12.3-3.8-19-3.8c-6.7,0-13,1.3-19,3.8
				c-6,2.5-11.3,6.1-15.8,10.6c-4.5,4.5-8.1,9.8-10.7,15.8c-2.6,6-3.9,12.3-3.9,18.8c0,6.8,1.3,13.3,3.8,19.3
				c2.5,6,6.1,11.3,10.6,15.7c4.5,4.5,9.8,7.9,15.8,10.4c6,2.5,12.4,3.7,19.1,3.7c6.7,0,13.1-1.2,19.1-3.7c6-2.5,11.3-5.9,15.8-10.4
				c4.5-4.5,8.1-9.7,10.6-15.7c2.5-6,3.8-12.5,3.8-19.3c0-6.6-1.3-12.9-3.9-18.8C303.4,1064.9,299.8,1059.6,295.3,1055.1z
				 M295.2,1104.6c-2,4.7-4.7,8.7-8.2,12.2c-3.5,3.5-7.5,6.2-12,8.1c-4.5,1.9-9.3,2.9-14.4,2.9c-5.1,0-9.9-1-14.4-2.9
				c-4.5-1.9-8.6-4.6-12-8.1c-3.5-3.5-6.2-7.6-8.2-12.2c-2-4.7-2.9-9.6-2.9-14.9c0-5.2,0.9-10,2.7-14.7c1.8-4.6,4.4-8.7,7.8-12.2
				c3.4-3.5,7.4-6.3,12-8.2c4.6-2,9.6-2.9,15-2.9c5.4,0,10.4,1,15,2.9c4.6,2,8.6,4.7,12,8.2c3.4,3.5,6,7.6,7.8,12.2
				c1.8,4.6,2.7,9.5,2.7,14.7C298.1,1095,297.1,1099.9,295.2,1104.6z"/>
			<path class="st0" d="M457.5,1087.1c4.2-4.9,6.2-10.8,6.2-17.7c0-4.6-1.1-8.9-3.3-13c-2.2-4.1-5.2-7.2-9-9.5
				c-3.3-1.9-6.9-3.1-10.8-3.6c-3.9-0.5-8.6-0.7-14-0.7h-14.2v94.1H424v-39.8h4.9l27.7,39.8h14.2l-29.7-40.9
				C447.9,1095,453.3,1092.1,457.5,1087.1z M427.8,1087.2H424v-34.1h3.1c3.3,0,6.4,0.2,9.4,0.6c2.9,0.4,5.6,1.2,8.1,2.4
				c2.5,1.2,4.4,2.9,5.9,5.2c1.5,2.3,2.2,5.2,2.2,8.7c0,3.6-0.7,6.5-2.1,8.8c-1.4,2.3-3.2,4-5.6,5.2c-2.4,1.2-5,2-7.8,2.5
				C434.4,1087,431.3,1087.2,427.8,1087.2z"/>
			<polygon class="st0" points="560,1053.4 582.3,1053.4 582.3,1136.8 594.1,1136.8 594.1,1053.4 616.4,1053.4 616.4,1042.6 
				560,1042.6 			"/>
			<path class="st0" d="M765.2,1100.1h24.3c-0.1,3.7-1,7.3-2.9,10.7c-1.8,3.4-4.2,6.4-7.2,9c-3,2.6-6.2,4.7-9.9,6.1
				c-3.6,1.5-7.3,2.2-10.9,2.2c-4.9,0-9.6-1.1-14.1-3.2c-4.5-2.1-8.4-5-11.8-8.7c-3.4-3.7-6-7.8-7.9-12.4c-1.9-4.6-2.8-9.3-2.8-14.2
				c0-5.2,1-10.1,2.9-14.7c1.9-4.7,4.6-8.8,8-12.3c3.4-3.5,7.4-6.3,12-8.2c4.6-2,9.5-2.9,14.7-2.9c5.7,0,11.2,1.4,16.5,4.2
				c5.3,2.8,9.7,6.5,13.1,11.2l8.2-7.9c-4.6-5.7-10.3-10.2-17-13.4c-6.8-3.2-13.9-4.8-21.3-4.8c-6.7,0-13,1.3-18.9,3.8
				c-5.9,2.5-11.2,6.1-15.7,10.7c-4.5,4.6-8,9.9-10.5,15.9c-2.5,6-3.7,12.3-3.7,19c0,6.4,1.2,12.6,3.7,18.5
				c2.5,5.9,5.9,11.2,10.2,15.7c4.4,4.6,9.5,8.2,15.3,10.7c5.8,2.6,11.9,3.9,18.3,3.9c6.4,0,12.4-1.1,17.8-3.4
				c5.5-2.3,10.2-5.5,14.2-9.7c4-4.2,7.1-9,9.2-14.6c2.2-5.6,3.2-11.6,3.2-18v-3.7h-37.3V1100.1z"/>
			<path class="st0" d="M895.3,1136.8h12.6l10.7-23.6h43.2l10.7,23.6h12.6l-44.9-98.1L895.3,1136.8z M923.5,1102.4l16.7-38.1
				l16.7,38.1H923.5z"/>
			<path class="st0" d="M1132.6,1100.1h24.3c-0.1,3.7-1,7.3-2.9,10.7c-1.8,3.4-4.2,6.4-7.2,9c-3,2.6-6.2,4.7-9.9,6.1
				c-3.6,1.5-7.3,2.2-10.9,2.2c-4.9,0-9.6-1.1-14.1-3.2c-4.5-2.1-8.4-5-11.8-8.7c-3.4-3.7-6-7.8-7.9-12.4c-1.9-4.6-2.8-9.3-2.8-14.2
				c0-5.2,1-10.1,2.9-14.7c1.9-4.7,4.6-8.8,8-12.3c3.4-3.5,7.4-6.3,12-8.2c4.6-2,9.5-2.9,14.7-2.9c5.7,0,11.2,1.4,16.5,4.2
				c5.3,2.8,9.7,6.5,13.1,11.2l8.2-7.9c-4.6-5.7-10.3-10.2-17-13.4c-6.8-3.2-13.9-4.8-21.3-4.8c-6.7,0-13,1.3-18.9,3.8
				c-5.9,2.5-11.2,6.1-15.7,10.7c-4.5,4.6-8,9.9-10.5,15.9c-2.5,6-3.7,12.3-3.7,19c0,6.4,1.2,12.6,3.7,18.5
				c2.5,5.9,5.9,11.2,10.2,15.7c4.4,4.6,9.5,8.2,15.3,10.7c5.8,2.6,11.9,3.9,18.3,3.9c6.4,0,12.4-1.1,17.8-3.4
				c5.5-2.3,10.2-5.5,14.2-9.7c4-4.2,7.1-9,9.2-14.6c2.2-5.6,3.2-11.6,3.2-18v-3.7h-37.3V1100.1z"/>
			<polygon class="st0" points="1272.6,1136.8 1323.2,1136.8 1323.2,1126 1284.3,1126 1284.3,1090.5 1322,1090.5 1322,1079.7 
				1284.3,1079.7 1284.3,1053.4 1323.2,1053.4 1323.2,1042.6 1272.6,1042.6 			"/>
			<path class="st0" d="M1481.3,1099.3c-1.1-3-2.7-5.5-4.8-7.7c-2.1-2.2-4.5-4.1-7.3-5.8c-2.8-1.7-6-3.2-9.5-4.6l-6.7-2.6
				c-3.7-1.4-6.9-3.2-9.4-5.3c-2.5-2.1-3.7-4.8-3.7-8.2c0-3.9,1.6-7.1,4.9-9.6c3.2-2.5,6.9-3.7,10.9-3.7c3.5,0,6.4,0.7,8.9,2.2
				c2.4,1.5,4.5,3.7,6.2,6.7l9.4-5.6c-2.6-4.6-6-8.1-10.1-10.5c-4.2-2.5-8.9-3.7-14.1-3.7c-3.6,0-7,0.6-10.4,1.7
				c-3.3,1.1-6.3,2.7-8.9,4.9c-2.6,2.1-4.7,4.7-6.2,7.7c-1.5,3-2.2,6.4-2.2,10c0,3.2,0.5,6,1.6,8.4c1.1,2.5,2.6,4.6,4.4,6.5
				s4,3.5,6.3,4.9c2.3,1.4,5,2.7,8.1,4.1l6.5,2.7c2.3,1,4.4,2,6.3,3c1.9,1,3.5,2.1,4.8,3.4c3.4,3.1,5.1,6.9,5.1,11.5
				c0,5-1.6,9.3-4.9,12.9c-3.3,3.6-7.4,5.4-12.4,5.4c-5.1,0-9.4-1.7-12.9-5.1c-3.5-3.4-5.3-7.6-5.3-12.8l-11.9,2.5
				c0.5,3.7,1.6,7.2,3.2,10.4c1.7,3.2,3.8,6,6.4,8.4c2.6,2.4,5.5,4.3,8.9,5.6c3.3,1.3,6.9,1.9,10.6,1.9c4.2,0,8.1-0.7,11.7-2.1
				c3.7-1.4,6.9-3.5,9.6-6.1c2.7-2.7,4.9-5.8,6.4-9.4c1.5-3.6,2.3-7.5,2.3-11.7C1482.9,1105.6,1482.4,1102.2,1481.3,1099.3z"/>
		</g>
	</g>
	<g>
		<path class="st1" d="M97.4,928.9c-2.6-3.4-5.8-6.3-9.3-8.6c-2.9-1.9-6.1-3.3-9.4-4.2c3.9-2.3,7.1-5.8,9.5-10.4
			c2.8-5.3,4.3-10.9,4.3-16.4c0-7.8-1.4-14.4-4.3-19.7c-2.8-5.3-6.8-9.5-11.8-12.5c-4.9-2.9-10.5-5-16.7-6.2
			c-6.1-1.1-12.9-1.7-20.2-1.7H21v144h34.2c6.6,0,12.9-0.8,18.8-2.3c5.9-1.5,11.3-4,16.1-7.2c4.8-3.3,8.6-7.6,11.3-12.8
			c2.8-5.2,4.2-11.4,4.2-18.5c0-4.2-0.7-8.4-2.1-12.5C102,936.1,100,932.3,97.4,928.9z M71.6,901.2c-1.4,2.9-3.4,5.2-6,6.8
			c-2.6,1.6-5.7,2.7-9.1,3.3c-3.5,0.6-7.6,0.9-12.1,0.9h-3.5v-45h3.8c4.6,0,8.6,0.3,12.1,0.9c3.4,0.6,6.4,1.7,9,3.3
			c2.5,1.5,4.5,3.8,5.9,6.7c1.4,3,2.2,6.8,2.2,11.4C73.7,894.3,73,898.2,71.6,901.2z M40.8,928.4h9.9c4.4,0,8.7,0.3,12.7,1
			c4,0.7,7.7,1.9,11.2,3.6c3.4,1.7,6.1,4.1,8.2,7.1c2,3,3,6.8,3,11.4c0,4.6-0.9,8.5-2.7,11.6c-1.8,3.1-4.2,5.6-7.2,7.4
			c-3,1.8-6.5,3.1-10.2,3.8c-3.8,0.7-8,1.1-12.4,1.1H40.8V928.4z"/>
		<polygon class="st1" points="161.9,849.4 142.1,849.4 142.1,993.4 205,993.4 205,975.1 161.9,975.1 		"/>
		<path class="st1" d="M352,868.4c-6.9-6.9-15-12.4-24.1-16.2c-9.1-3.9-18.9-5.8-29-5.8c-10.1,0-19.9,2-29,5.8
			c-9.1,3.9-17.2,9.3-24.1,16.2c-6.9,6.9-12.4,15-16.3,24.1c-3.9,9.1-5.9,18.8-5.9,28.8c0,10.4,2,20.3,5.8,29.5
			c3.9,9.2,9.3,17.3,16.2,24.1c6.9,6.8,15,12.1,24.2,15.8c9.1,3.7,19,5.6,29.2,5.6c10.2,0,20.1-1.9,29.2-5.6
			c9.1-3.7,17.2-9.1,24.1-15.8c6.9-6.8,12.4-14.9,16.2-24.1c3.9-9.2,5.8-19.1,5.8-29.5c0-10-2-19.7-5.9-28.8
			C364.4,883.4,358.9,875.3,352,868.4z M298.8,977.7c-7.5,0-14.7-1.4-21.3-4.2c-6.7-2.8-12.7-6.9-17.8-12
			c-5.2-5.2-9.2-11.2-12.1-18.1c-2.9-6.9-4.3-14.3-4.3-22c0-7.6,1.4-14.9,4.1-21.7c2.7-6.8,6.6-12.9,11.6-18.1
			c5-5.2,10.9-9.3,17.7-12.2c6.8-2.9,14.3-4.3,22.3-4.3s15.5,1.5,22.3,4.3c6.8,2.9,12.8,7,17.7,12.2c5,5.2,8.9,11.3,11.6,18.1
			c2.7,6.8,4.1,14.1,4.1,21.7c0,7.7-1.5,15.1-4.3,22c-2.9,6.9-7,13-12.1,18.1c-5.2,5.2-11.2,9.2-17.8,12
			C313.5,976.3,306.3,977.7,298.8,977.7z"/>
		<path class="st1" d="M481.8,923.4c-3.2-3.4-7-6.4-11.2-8.9c-4.2-2.5-9.1-4.9-14.6-7l-10.2-4c-5.5-2.1-10.2-4.7-13.8-7.8
			c-3.6-3-5.3-6.8-5.3-11.5c0-5.6,2.3-10.1,6.9-13.7c4.7-3.6,10-5.4,15.7-5.4c5,0,9.4,1.1,12.8,3.1c3.5,2.1,6.5,5.4,9,9.7l0.5,0.9
			l15.9-9.5l-0.5-0.9c-4-7-9.2-12.5-15.6-16.3c-6.4-3.8-13.8-5.7-21.8-5.7c-5.5,0-10.9,0.9-16,2.6c-5.1,1.7-9.8,4.3-13.8,7.5
			c-4.1,3.3-7.3,7.3-9.6,12c-2.3,4.7-3.5,10-3.5,15.6c0,4.9,0.9,9.3,2.5,13.1c1.7,3.8,4,7.2,6.9,10.1c2.9,2.9,6.1,5.4,9.7,7.5
			c3.5,2.1,7.7,4.2,12.4,6.2l9.8,4.1c3.5,1.5,6.7,3,9.4,4.5c2.7,1.5,5.1,3.1,7,4.9c4.9,4.4,7.4,10,7.4,16.5c0,7.2-2.4,13.5-7.2,18.8
			c-4.7,5.2-10.8,7.8-18,7.8c-7.3,0-13.7-2.5-18.8-7.3c-5.1-4.9-7.7-11.1-7.7-18.5v-1.3l-20.1,4.2l0.1,1c0.8,5.7,2.5,11.2,5,16.1
			c2.6,4.9,5.9,9.3,9.8,13c4,3.7,8.6,6.6,13.7,8.6c5.1,2,10.6,3,16.4,3c6.4,0,12.4-1.1,18.1-3.3c5.6-2.2,10.6-5.4,14.8-9.4
			c4.2-4.1,7.6-9,9.9-14.6c2.4-5.6,3.6-11.6,3.6-18c0-5.9-0.9-11.2-2.6-15.7C487.5,930.8,485,926.8,481.8,923.4z"/>
		<path class="st1" d="M601.7,923.4c-3.2-3.4-7-6.4-11.2-8.9c-4.2-2.5-9.1-4.9-14.6-7l-10.2-4c-5.5-2.1-10.2-4.7-13.8-7.8
			c-3.6-3-5.3-6.8-5.3-11.5c0-5.6,2.3-10.1,6.9-13.7c4.7-3.6,10-5.4,15.7-5.4c5,0,9.4,1.1,12.8,3.1c3.5,2.1,6.5,5.4,9,9.7l0.5,0.9
			l15.9-9.5l-0.5-0.9c-4-7-9.2-12.5-15.6-16.3c-6.4-3.8-13.8-5.7-21.8-5.7c-5.5,0-10.9,0.9-16,2.6c-5.1,1.7-9.8,4.3-13.8,7.5
			c-4.1,3.3-7.3,7.3-9.6,12c-2.3,4.7-3.5,10-3.5,15.6c0,4.9,0.9,9.3,2.5,13.1c1.7,3.8,4,7.2,6.9,10.1c2.9,2.9,6.1,5.4,9.7,7.5
			c3.5,2.1,7.7,4.2,12.4,6.2l9.8,4.1c3.5,1.5,6.7,3,9.4,4.5c2.7,1.5,5.1,3.1,7,4.9c4.9,4.4,7.4,10,7.4,16.5c0,7.2-2.4,13.5-7.2,18.8
			c-4.7,5.2-10.8,7.8-18,7.8c-7.3,0-13.7-2.5-18.8-7.3c-5.1-4.9-7.7-11.1-7.7-18.5v-1.3l-20.1,4.2l0.1,1c0.8,5.7,2.5,11.2,5,16.1
			c2.6,4.9,5.9,9.3,9.8,13c4,3.7,8.6,6.6,13.7,8.6c5.1,2,10.6,3,16.4,3c6.4,0,12.4-1.1,18.1-3.3c5.6-2.2,10.6-5.4,14.8-9.4
			c4.2-4.1,7.6-9,9.9-14.6c2.4-5.6,3.6-11.6,3.6-18c0-5.9-0.9-11.2-2.6-15.7C607.4,930.8,604.9,926.8,601.7,923.4z"/>
		<path class="st1" d="M766.5,868.4c-6.9-6.9-15-12.4-24.1-16.2c-9.1-3.9-18.9-5.8-29-5.8c-10.1,0-19.9,2-29,5.8
			c-9.1,3.9-17.2,9.3-24.1,16.2c-6.9,6.9-12.4,15-16.3,24.1c-3.9,9.1-5.9,18.8-5.9,28.8c0,10.4,2,20.3,5.8,29.5
			c3.9,9.2,9.3,17.3,16.2,24.1c6.9,6.8,15,12.1,24.2,15.8c9.1,3.7,19,5.6,29.2,5.6s20.1-1.9,29.2-5.6c9.1-3.7,17.2-9.1,24.1-15.8
			c6.9-6.8,12.4-14.9,16.2-24.1c3.9-9.2,5.8-19.1,5.8-29.5c0-10-2-19.7-5.9-28.8C778.9,883.4,773.4,875.3,766.5,868.4z M713.3,977.7
			c-7.5,0-14.7-1.4-21.3-4.2c-6.7-2.8-12.7-6.9-17.8-12c-5.2-5.2-9.2-11.2-12.1-18.1c-2.9-6.9-4.3-14.3-4.3-22
			c0-7.6,1.4-14.9,4.1-21.7c2.7-6.8,6.6-12.9,11.6-18.1c5-5.2,10.9-9.3,17.7-12.2c6.8-2.9,14.3-4.3,22.3-4.3s15.5,1.5,22.3,4.3
			c6.8,2.9,12.8,7,17.7,12.2c5,5.2,8.9,11.3,11.6,18.1c2.7,6.8,4.1,14.1,4.1,21.7c0,7.7-1.5,15.1-4.3,22c-2.9,6.9-7,13-12.1,18.1
			c-5.2,5.2-11.2,9.2-17.8,12C728,976.3,720.8,977.7,713.3,977.7z"/>
		<polygon class="st1" points="890.3,953.6 841.2,840.9 811.3,993.4 831.7,993.4 847.9,901.6 890.3,998 932.7,901.6 948.9,993.4 
			969.3,993.4 939.4,840.9 		"/>
		<polygon class="st1" points="1001.5,993.4 1021.2,993.4 1021.2,923.7 1070.6,923.7 1070.6,905.5 1021.2,905.5 1021.2,867.6 
			1072.3,867.6 1072.3,849.4 1001.5,849.4 		"/>
		<rect x="1109.1" y="849.4" class="st1" width="19.8" height="144"/>
		<polygon class="st1" points="1172.2,993.4 1250.5,993.4 1250.5,975.1 1192,975.1 1192,923.6 1248.8,923.6 1248.8,905.3 
			1192,905.3 1192,867.6 1250.5,867.6 1250.5,849.4 1172.2,849.4 		"/>
		<polygon class="st1" points="1308.9,849.4 1289.1,849.4 1289.1,993.4 1352,993.4 1352,975.1 1308.9,975.1 		"/>
		<path class="st1" d="M1483.8,889.6c-4.1-9-10-16.5-17.4-22.4c-7.4-5.9-16.1-10.4-25.8-13.4c-9.7-3-20.2-4.5-31.3-4.5h-30.4v144
			h29.9c11.3,0,22.1-1.5,31.8-4.5c9.8-3,18.5-7.6,26-13.7c7.4-6.1,13.3-13.8,17.3-23c4.1-9.1,6.1-19.8,6.1-31.7
			C1490,909,1487.9,898.5,1483.8,889.6z M1398.7,867.6h5.2c9.3,0,18,0.9,26,2.8c7.9,1.8,15,4.9,21,9.1c6,4.1,10.7,9.7,14.2,16.6
			c3.4,6.9,5.2,15.4,5.2,25.2c0,9.7-1.7,18.1-5.2,25c-3.4,6.9-8.2,12.5-14.2,16.6c-6,4.2-13.1,7.3-20.9,9.2
			c-7.9,1.9-16.7,2.9-26.1,2.9h-5.2V867.6z"/>
	</g>
	<polygon class="st1" points="536.7,128.9 303.5,263.1 303.5,782.2 426,782.2 426,336.4 662.1,202.2 	"/>
	<polygon class="st1" points="1029.4,411.2 1029.4,655.3 916.7,655.3 1045.8,782 1154.8,782.2 1154.8,482.3 	"/>
	<polygon class="st0" points="1154.8,262.9 1060.2,207.9 1060.2,33.6 926.7,33.6 926.7,130.4 732.4,17.5 605.6,91.5 1154.8,406.1 	
		"/>
</g>
</svg>
