<?xml version="1.0" encoding="utf-8"?>
<!-- Generator: Adobe Illustrator 24.0.3, SVG Export Plug-In . SVG Version: 6.00 Build 0)  -->
<svg version="1.1" id="Layer_1" xmlns="http://www.w3.org/2000/svg" xmlns:xlink="http://www.w3.org/1999/xlink" x="0px" y="0px"
	 viewBox="0 0 1000 220" style="enable-background:new 0 0 1000 220;" xml:space="preserve">
<style type="text/css">
	.st0{fill:#1694B9;}
	.st1{fill:#222F5C;}
</style>
<g>
	<g>
		<g>
			<g>
				<polygon class="st0" points="296.6,203.9 280.7,167.5 271.2,215.7 277.2,215.7 282.6,185.2 282.7,185.2 296.6,216.7 
					310.5,185.2 310.6,185.2 316,215.7 322,215.7 312.5,167.5 				"/>
				<path class="st0" d="M410,175.5c-2.2-2.2-4.8-4-7.8-5.2c-2.9-1.2-6.1-1.9-9.3-1.9c-3.3,0-6.4,0.6-9.3,1.9
					c-2.9,1.2-5.5,3-7.8,5.2c-2.2,2.2-4,4.8-5.2,7.8c-1.3,2.9-1.9,6-1.9,9.3c0,3.4,0.6,6.5,1.9,9.5c1.2,3,3,5.5,5.2,7.7
					s4.8,3.9,7.8,5.1c2.9,1.2,6.1,1.8,9.4,1.8c3.3,0,6.4-0.6,9.4-1.8s5.5-2.9,7.8-5.1c2.2-2.2,4-4.8,5.2-7.7c1.2-3,1.9-6.1,1.9-9.5
					c0-3.2-0.6-6.3-1.9-9.3C414,180.4,412.2,177.8,410,175.5z M409.9,199.9c-1,2.3-2.3,4.3-4,6c-1.7,1.7-3.7,3.1-5.9,4
					c-2.2,0.9-4.6,1.4-7.1,1.4c-2.5,0-4.9-0.5-7.1-1.4c-2.2-0.9-4.2-2.3-5.9-4c-1.7-1.7-3.1-3.7-4-6c-1-2.3-1.4-4.7-1.4-7.3
					c0-2.5,0.5-5,1.3-7.2c0.9-2.3,2.2-4.3,3.8-6c1.7-1.7,3.6-3.1,5.9-4c2.3-1,4.7-1.4,7.4-1.4s5.1,0.5,7.4,1.4c2.3,1,4.2,2.3,5.9,4
					s2.9,3.7,3.8,6c0.9,2.3,1.3,4.7,1.3,7.2C411.4,195.2,410.9,197.6,409.9,199.9z"/>
				<path class="st0" d="M489.8,191.3c2.1-2.4,3.1-5.3,3.1-8.7c0-2.2-0.6-4.4-1.6-6.4c-1.1-2-2.6-3.6-4.5-4.7
					c-1.6-0.9-3.4-1.5-5.3-1.8c-1.9-0.3-4.2-0.4-6.9-0.4h-7v46.3h5.8v-19.6h2.4l13.6,19.6h7l-14.6-20.1
					C485,195.2,487.7,193.8,489.8,191.3z M475.1,191.3h-1.9v-16.7h1.5c1.6,0,3.2,0.1,4.6,0.3c1.4,0.2,2.7,0.6,4,1.2
					c1.2,0.6,2.2,1.4,2.9,2.5c0.7,1.1,1.1,2.5,1.1,4.3c0,1.8-0.3,3.2-1,4.3c-0.7,1.1-1.6,2-2.8,2.6c-1.2,0.6-2.4,1-3.8,1.2
					C478.4,191.2,476.9,191.3,475.1,191.3z"/>
				<polygon class="st0" points="540.1,174.7 551.1,174.7 551.1,215.7 556.9,215.7 556.9,174.7 567.9,174.7 567.9,169.4 
					540.1,169.4 				"/>
				<path class="st0" d="M641,197.7h12c0,1.9-0.5,3.6-1.4,5.2c-0.9,1.7-2.1,3.1-3.5,4.4c-1.5,1.3-3.1,2.3-4.9,3
					c-1.8,0.7-3.6,1.1-5.4,1.1c-2.4,0-4.7-0.5-6.9-1.6c-2.2-1-4.1-2.5-5.8-4.3c-1.7-1.8-2.9-3.8-3.9-6.1c-0.9-2.3-1.4-4.6-1.4-7
					c0-2.5,0.5-5,1.4-7.2c0.9-2.3,2.2-4.3,3.9-6.1c1.7-1.7,3.6-3.1,5.9-4c2.3-0.9,4.7-1.4,7.2-1.4c2.8,0,5.5,0.7,8.1,2.1
					c2.6,1.4,4.8,3.2,6.4,5.5l4-3.9c-2.2-2.8-5-5-8.4-6.6c-3.3-1.6-6.8-2.4-10.5-2.4c-3.3,0-6.4,0.6-9.3,1.9c-2.9,1.2-5.5,3-7.7,5.2
					c-2.2,2.2-3.9,4.9-5.1,7.8c-1.2,2.9-1.9,6.1-1.9,9.3c0,3.2,0.6,6.2,1.8,9.1c1.2,2.9,2.9,5.5,5,7.7c2.1,2.2,4.7,4,7.5,5.3
					s5.9,1.9,9,1.9c3.2,0,6.1-0.6,8.8-1.7c2.7-1.1,5-2.7,7-4.8c2-2.1,3.5-4.4,4.5-7.2c1.1-2.7,1.6-5.7,1.6-8.8v-1.9h-18.3L641,197.7
					L641,197.7z"/>
				<path class="st0" d="M705,215.7h6.2l5.3-11.6h21.2l5.3,11.6h6.2l-22.1-48.2L705,215.7z M718.9,198.8l8.2-18.7l8.2,18.7H718.9z"
					/>
				<path class="st0" d="M821.7,197.7h12c0,1.9-0.5,3.6-1.4,5.2c-0.9,1.7-2.1,3.1-3.5,4.4c-1.5,1.3-3.1,2.3-4.9,3
					c-1.8,0.7-3.6,1.1-5.4,1.1c-2.4,0-4.7-0.5-6.9-1.6c-2.2-1-4.1-2.5-5.8-4.3c-1.7-1.8-2.9-3.8-3.9-6.1c-0.9-2.3-1.4-4.6-1.4-7
					c0-2.5,0.5-5,1.4-7.2c0.9-2.3,2.2-4.3,3.9-6.1c1.7-1.7,3.6-3.1,5.9-4c2.3-0.9,4.7-1.4,7.2-1.4c2.8,0,5.5,0.7,8.1,2.1
					c2.6,1.4,4.8,3.2,6.4,5.5l4-3.9c-2.2-2.8-5-5-8.4-6.6c-3.3-1.6-6.8-2.4-10.5-2.4c-3.3,0-6.4,0.6-9.3,1.9c-2.9,1.2-5.5,3-7.7,5.2
					c-2.2,2.2-3.9,4.9-5.1,7.8c-1.2,2.9-1.9,6.1-1.9,9.3c0,3.2,0.6,6.2,1.8,9.1c1.2,2.9,2.9,5.5,5,7.7c2.1,2.2,4.7,4,7.5,5.3
					c2.9,1.3,5.9,1.9,9,1.9c3.2,0,6.1-0.6,8.8-1.7c2.7-1.1,5-2.7,7-4.8c2-2.1,3.5-4.4,4.5-7.2c1.1-2.7,1.6-5.7,1.6-8.8v-1.9h-18.3
					L821.7,197.7L821.7,197.7z"/>
				<polygon class="st0" points="890.5,215.7 915.4,215.7 915.4,210.4 896.3,210.4 896.3,192.9 914.9,192.9 914.9,187.7 
					896.3,187.7 896.3,174.7 915.4,174.7 915.4,169.4 890.5,169.4 				"/>
				<path class="st0" d="M993.1,197.3c-0.6-1.5-1.3-2.7-2.4-3.8c-1-1.1-2.2-2-3.6-2.9c-1.4-0.8-2.9-1.6-4.7-2.3l-3.3-1.3
					c-1.9-0.7-3.4-1.6-4.6-2.6c-1.2-1-1.9-2.4-1.9-4c0-1.9,0.8-3.5,2.4-4.7c1.6-1.2,3.4-1.9,5.3-1.9c1.7,0,3.2,0.4,4.4,1.1
					c1.2,0.7,2.2,1.8,3.1,3.3l4.6-2.8c-1.3-2.2-2.9-4-5-5.2c-2.1-1.2-4.4-1.8-6.9-1.8c-1.8,0-3.5,0.3-5.1,0.8
					c-1.6,0.6-3.1,1.3-4.4,2.4c-1.3,1-2.3,2.3-3,3.8c-0.7,1.5-1.1,3.1-1.1,5c0,1.6,0.3,2.9,0.8,4.1c0.5,1.2,1.3,2.3,2.2,3.2
					c0.9,0.9,2,1.7,3.1,2.4c1.1,0.7,2.5,1.3,4,2l3.2,1.3c1.1,0.5,2.2,1,3.1,1.5c0.9,0.5,1.7,1,2.4,1.7c1.7,1.5,2.5,3.4,2.5,5.6
					c0,2.4-0.8,4.6-2.4,6.4c-1.6,1.8-3.6,2.7-6.1,2.7c-2.5,0-4.6-0.8-6.4-2.5c-1.7-1.7-2.6-3.7-2.6-6.3l-5.8,1.2
					c0.3,1.9,0.8,3.6,1.6,5.1s1.9,3,3.1,4.1c1.3,1.2,2.7,2.1,4.4,2.7c1.6,0.6,3.4,0.9,5.2,0.9c2.1,0,4-0.4,5.8-1
					c1.8-0.7,3.4-1.7,4.7-3s2.4-2.9,3.2-4.6c0.7-1.8,1.1-3.7,1.1-5.7C994,200.4,993.7,198.7,993.1,197.3z"/>
			</g>
		</g>
		<g>
			<path class="st1" d="M312.7,113.5c-1.3-1.7-2.8-3.1-4.6-4.2c-1.4-0.9-3-1.6-4.7-2.1c1.9-1.1,3.5-2.8,4.7-5.1
				c1.4-2.6,2.1-5.3,2.1-8.1c0-3.8-0.7-7.1-2.1-9.7c-1.4-2.6-3.4-4.7-5.8-6.1c-2.4-1.4-5.2-2.5-8.2-3c-3-0.6-6.4-0.8-10-0.8h-9v70.8
				H292c3.2,0,6.4-0.4,9.3-1.1c2.9-0.7,5.6-2,7.9-3.6c2.3-1.6,4.2-3.7,5.6-6.3c1.4-2.6,2.1-5.6,2.1-9.1c0-2.1-0.4-4.1-1-6.2
				C314.9,117.1,314,115.2,312.7,113.5z M300,99.9c-0.7,1.4-1.7,2.6-3,3.4c-1.3,0.8-2.8,1.3-4.5,1.7c-1.7,0.3-3.7,0.5-6,0.5h-1.7
				V83.2h1.9c2.2,0,4.2,0.2,5.9,0.5c1.7,0.3,3.1,0.8,4.4,1.6c1.2,0.7,2.2,1.9,2.9,3.3c0.7,1.5,1.1,3.4,1.1,5.6
				C301,96.5,300.7,98.4,300,99.9z M284.9,113.3h4.9c2.2,0,4.3,0.2,6.3,0.5c2,0.3,3.8,0.9,5.5,1.8c1.7,0.8,3,2,4,3.5
				c1,1.5,1.5,3.4,1.5,5.6c0,2.2-0.5,4.2-1.3,5.7c-0.9,1.6-2.1,2.8-3.5,3.6c-1.5,0.9-3.2,1.5-5,1.9c-1.9,0.4-3.9,0.6-6.1,0.6h-6.2
				V113.3z"/>
			<polygon class="st1" points="344.4,74.4 334.7,74.4 334.7,145.2 365.6,145.2 365.6,136.2 344.4,136.2 			"/>
			<path class="st1" d="M437.9,83.8c-3.4-3.4-7.4-6.1-11.9-8s-9.3-2.9-14.3-2.9c-5,0-9.8,1-14.3,2.9c-4.5,1.9-8.5,4.6-11.9,8
				c-3.4,3.4-6.1,7.4-8,11.9c-1.9,4.5-2.9,9.3-2.9,14.2c0,5.1,1,10,2.9,14.5c1.9,4.5,4.6,8.5,8,11.8s7.4,6,11.9,7.8
				c4.5,1.8,9.3,2.8,14.4,2.8c5,0,9.9-0.9,14.4-2.8c4.5-1.8,8.5-4.5,11.9-7.8c3.4-3.3,6.1-7.3,8-11.8c1.9-4.5,2.9-9.4,2.9-14.5
				c0-4.9-1-9.7-2.9-14.2C444,91.2,441.3,87.2,437.9,83.8z M411.7,137.5c-3.7,0-7.2-0.7-10.5-2.1c-3.3-1.4-6.2-3.4-8.8-5.9
				c-2.5-2.5-4.5-5.5-6-8.9c-1.4-3.4-2.1-7-2.1-10.8c0-3.7,0.7-7.3,2-10.7c1.3-3.4,3.2-6.4,5.7-8.9c2.4-2.6,5.4-4.6,8.7-6
				c3.4-1.4,7-2.1,10.9-2.1s7.6,0.7,10.9,2.1c3.4,1.4,6.3,3.4,8.7,6c2.4,2.6,4.4,5.6,5.7,8.9c1.3,3.4,2,6.9,2,10.7
				c0,3.8-0.7,7.4-2.1,10.8c-1.4,3.4-3.4,6.4-6,8.9c-2.5,2.5-5.5,4.5-8.8,5.9C418.9,136.8,415.4,137.5,411.7,137.5z"/>
			<path class="st1" d="M501.7,110.8c-1.6-1.7-3.4-3.1-5.5-4.4c-2.1-1.2-4.5-2.4-7.2-3.5l-5-2c-2.7-1-5-2.3-6.8-3.8
				c-1.8-1.5-2.6-3.4-2.6-5.7c0-2.8,1.1-5,3.4-6.7c2.3-1.8,4.9-2.7,7.8-2.7c2.5,0,4.6,0.5,6.3,1.5c1.7,1,3.2,2.6,4.5,4.8l0.3,0.5
				l7.8-4.7l-0.3-0.4c-2-3.5-4.5-6.2-7.7-8s-6.8-2.8-10.7-2.8c-2.7,0-5.3,0.4-7.8,1.3s-4.8,2.1-6.8,3.7c-2,1.6-3.6,3.6-4.7,5.9
				c-1.1,2.3-1.7,4.9-1.7,7.7c0,2.4,0.4,4.6,1.2,6.4c0.8,1.9,2,3.6,3.4,5c1.4,1.4,3,2.7,4.8,3.7c1.7,1,3.8,2.1,6.1,3l4.8,2
				c1.7,0.7,3.3,1.5,4.6,2.2c1.3,0.7,2.5,1.5,3.5,2.4c2.4,2.2,3.6,4.9,3.6,8.1c0,3.6-1.2,6.6-3.5,9.3c-2.3,2.6-5.3,3.8-8.8,3.8
				c-3.6,0-6.7-1.2-9.2-3.6c-2.5-2.4-3.8-5.4-3.8-9.1v-0.7l-9.9,2.1l0.1,0.5c0.4,2.8,1.2,5.5,2.5,7.9c1.3,2.4,2.9,4.6,4.8,6.4
				c2,1.8,4.2,3.3,6.7,4.2c2.5,1,5.2,1.5,8,1.5c3.1,0,6.1-0.6,8.9-1.6c2.8-1.1,5.2-2.6,7.3-4.7s3.7-4.4,4.9-7.2
				c1.2-2.7,1.8-5.7,1.8-8.9c0-2.9-0.4-5.5-1.3-7.7C504.5,114.5,503.3,112.5,501.7,110.8z"/>
			<path class="st1" d="M560.7,110.8c-1.6-1.7-3.4-3.1-5.5-4.4c-2.1-1.2-4.5-2.4-7.2-3.5l-5-2c-2.7-1-5-2.3-6.8-3.8
				c-1.8-1.5-2.6-3.4-2.6-5.7c0-2.8,1.1-5,3.4-6.7c2.3-1.8,4.9-2.7,7.8-2.7c2.5,0,4.6,0.5,6.3,1.5c1.7,1,3.2,2.6,4.5,4.8l0.3,0.5
				l7.8-4.7l-0.3-0.4c-2-3.5-4.5-6.2-7.7-8c-3.2-1.9-6.8-2.8-10.7-2.8c-2.7,0-5.3,0.4-7.8,1.3s-4.8,2.1-6.8,3.7
				c-2,1.6-3.6,3.6-4.7,5.9c-1.1,2.3-1.7,4.9-1.7,7.7c0,2.4,0.4,4.6,1.2,6.4c0.8,1.9,2,3.6,3.4,5c1.4,1.4,3,2.7,4.8,3.7
				c1.7,1,3.8,2.1,6.1,3l4.8,2c1.7,0.7,3.3,1.5,4.6,2.2c1.3,0.7,2.5,1.5,3.5,2.4c2.4,2.2,3.6,4.9,3.6,8.1c0,3.6-1.2,6.6-3.5,9.3
				c-2.3,2.6-5.3,3.8-8.8,3.8c-3.6,0-6.7-1.2-9.2-3.6c-2.5-2.4-3.8-5.4-3.8-9.1v-0.7l-9.9,2.1l0.1,0.5c0.4,2.8,1.2,5.5,2.5,7.9
				c1.3,2.4,2.9,4.6,4.8,6.4s4.2,3.3,6.7,4.2c2.5,1,5.2,1.5,8,1.5c3.1,0,6.1-0.6,8.9-1.6c2.8-1.1,5.2-2.6,7.3-4.7s3.7-4.4,4.9-7.2
				s1.8-5.7,1.8-8.9c0-2.9-0.4-5.5-1.3-7.7C563.5,114.5,562.3,112.5,560.7,110.8z"/>
			<path class="st1" d="M641.7,83.8c-3.4-3.4-7.4-6.1-11.9-8s-9.3-2.9-14.3-2.9s-9.8,1-14.3,2.9c-4.5,1.9-8.5,4.6-11.9,8
				c-3.4,3.4-6.1,7.4-8,11.9c-1.9,4.5-2.9,9.3-2.9,14.2c0,5.1,1,10,2.9,14.5c1.9,4.5,4.6,8.5,8,11.8c3.4,3.3,7.4,6,11.9,7.8
				c4.5,1.8,9.3,2.8,14.4,2.8s9.9-0.9,14.4-2.8s8.5-4.5,11.9-7.8c3.4-3.3,6.1-7.3,8-11.8c1.9-4.5,2.9-9.4,2.9-14.5
				c0-4.9-1-9.7-2.9-14.2C647.8,91.2,645.1,87.2,641.7,83.8z M615.5,137.5c-3.7,0-7.2-0.7-10.5-2.1c-3.3-1.4-6.2-3.4-8.8-5.9
				c-2.5-2.5-4.5-5.5-6-8.9c-1.4-3.4-2.1-7-2.1-10.8c0-3.7,0.7-7.3,2-10.7c1.3-3.4,3.2-6.4,5.7-8.9c2.4-2.6,5.4-4.6,8.7-6
				c3.4-1.4,7-2.1,10.9-2.1c3.9,0,7.6,0.7,10.9,2.1c3.4,1.4,6.3,3.4,8.7,6s4.4,5.6,5.7,8.9c1.3,3.4,2,6.9,2,10.7
				c0,3.8-0.7,7.4-2.1,10.8c-1.4,3.4-3.4,6.4-6,8.9c-2.5,2.5-5.5,4.5-8.8,5.9C622.8,136.8,619.2,137.5,615.5,137.5z"/>
			<polygon class="st1" points="702.6,125.6 678.4,70.2 663.7,145.2 673.7,145.2 681.7,100 702.6,147.5 723.4,100 731.4,145.2 
				741.4,145.2 726.7,70.2 			"/>
			<polygon class="st1" points="757.2,145.2 767,145.2 767,111 791.2,111 791.2,102 767,102 767,83.4 792,83.4 792,74.4 757.2,74.4 
							"/>
			<rect x="810.2" y="74.4" class="st1" width="9.7" height="70.8"/>
			<polygon class="st1" points="841.2,145.2 879.7,145.2 879.7,136.2 850.9,136.2 850.9,110.9 878.9,110.9 878.9,101.9 850.9,101.9 
				850.9,83.4 879.7,83.4 879.7,74.4 841.2,74.4 			"/>
			<polygon class="st1" points="908.4,74.4 898.6,74.4 898.6,145.2 929.6,145.2 929.6,136.2 908.4,136.2 			"/>
			<path class="st1" d="M994.4,94.2c-2-4.4-4.9-8.1-8.6-11c-3.6-2.9-7.9-5.1-12.7-6.6c-4.8-1.5-9.9-2.2-15.4-2.2h-14.9v70.8h14.7
				c5.6,0,10.8-0.7,15.7-2.2c4.8-1.5,9.1-3.7,12.8-6.7s6.5-6.8,8.5-11.3c2-4.5,3-9.7,3-15.6C997.4,103.7,996.4,98.6,994.4,94.2z
				 M952.6,83.4h2.5c4.6,0,8.9,0.5,12.8,1.4c3.9,0.9,7.4,2.4,10.3,4.5c2.9,2.1,5.3,4.8,7,8.2s2.5,7.6,2.5,12.4
				c0,4.8-0.8,8.9-2.5,12.3c-1.7,3.4-4,6.2-7,8.2c-3,2.1-6.4,3.6-10.3,4.5c-3.9,0.9-8.2,1.4-12.8,1.4h-2.5V83.4z"/>
		</g>
	</g>
	<g>
		<path class="st0" d="M191.3,215.7c-0.6-0.8-21.1-2.4-29.4-2.8c0.1-3.3,1.3-4.6,1.1-8.7c-0.3-4.5-1.8-9.8-2.5-14.9
			c-0.7-5.1-0.4-6.9,0.8-8s7-6.9,10.9-10.9c3.8-4,5.6-7.5,5.2-12.7c-0.4-5.2-2.3-10.7-3.6-17.5s-3-17.2-5.6-21.4s-8-6.6-13.3-9.8
			c-5.3-3.2-5.5-5.4-6-6.1s-3.6-1-4.1-2.4c-0.5-1.5-0.6-4-0.1-5.1c0.5-1.1,2.3-2,2.9-3.6c0.6-1.6,0.4-4.5,0.4-5.6
			c-0.1-1.1,1-5.9-0.1-9.3s-4.1-7.3-10.7-8.3c-6.6-1-11.2,2.5-12.5,6.4s-1.7,11.2-0.2,18.3c1.5,7.1,5.9,11.8,6.2,12.3
			s-0.2,1.5-1.2,2.8c-1,1.3-1.6,2.9-2,3.6c-0.4,0.7-3.2,1.8-5.3,3.9c-2.1,2.1-2.7,5-3.5,5c-0.7,0-2-0.7-1.8-3.6
			c0.2-2.8,0.7-11.7-0.9-21.3c-1.7-9.6-6.1-16.1-16.5-14.7S88.9,97.7,88,104.4c-0.9,6.7-2.4,14.1-3.5,14.4c-1,0.4-3.8-0.1-6.1,1.8
			c-2.3,1.9-6.6,9.1-8.1,14.1c-1.5,5-0.5,9.8-1.6,14.4c-1.1,4.7-4.1,10.4-2.9,18.7s7.8,21.4,7.8,21.4s-1,7.8,0.8,14.7
			c1.2,4.5,2.6,7.8,3.4,9.5c-7.6,0.7-25.6,2.2-25.6,2.2s-0.4,0.7,0.2,0.7c0.3,0,15.2,0,49.8,0c0.3-4.1,0.7-11.6,0.6-17.8
			c-0.1-9-1.3-14-2.2-16.5c-0.9-2.6-4.1-5.9-6.2-13.5c-2.1-7.6-1.9-16.4-1.9-16.4s-8.1-7.1-9.5-8.7c-1.4-1.6-0.6-2.1-0.2-1.8
			s-1.2-2.4,0.3-2.1c1.5,0.2,5,4.3,7.8,5.2c2.9,0.9,3.1-0.9,3.2-2.8c0.1-1.9,1.1-4.1,2.3-3.5c1.2,0.7-0.4,9,0.4,11.5
			c0.7,2.6,4.1,9.5,7.2,15.3c3.2,5.8,7.4,11.2,7.9,11.8c0.5,0.6,2.6-2.4,2.6-3.2c0-0.7-2.4-2.5-3.9-4.8c-1.5-2.3-0.1-3.7,0-3.9
			c0.1-0.2-1.8-7.8,3-13.1c4.8-5.2,10.8-5.1,15.2-1.6s3.2,13.3,3.5,13.9c0.2,0.6,1.6-0.1,1.3,2.1s-3.5,4.6-3.6,5.4s-0.4,2.3-0.2,3.2
			c0.2,0.9,1.7,1.2,2.4,1c0.7-0.2,7.3-7.2,9.5-12c2.1-4.7,4.7-11.7,5.4-13.3c0.7-1.6,0.6-10.8,1.2-12s1.7-1,1.6,0.9
			c-0.1,1.9,0.3,3,0.5,3.2c0.2,0.2,1.4,0.6,3.6-1.8c2.1-2.4,3.7-5.1,4.4-5s-0.3,1.8-0.6,2.7c-0.3,0.9,2.4-1.9,2.9-1.2
			s-1.2,3.6-1.3,4.3c-0.1,0.7-6.4,7.5-7.3,9c-0.9,1.5-0.1,8.3-1.6,12.8c-1.5,4.5-5,9.3-5,9.8c0,0.5-1.4,6-3.5,10.1
			c-2.1,4.1-4.9,6.8-5.1,7.3c-0.1,0.4-1.4,19.3-1.8,25.7c34.6,0,50.6,0,56,0C191.5,216.5,191.3,215.8,191.3,215.7z M80.5,163.6
			c-1.3,2.3-4.6,8.4-4.9,7.7c-0.3-0.7-0.6-5-0.1-6.6c0.6-1.6,5.2-14.9,5.2-14.9C81.5,149.8,81.8,161.3,80.5,163.6z"/>
		<polygon class="st1" points="67.6,34.1 2.5,71.6 2.5,216.5 36.7,216.5 36.7,92.1 102.6,54.6 		"/>
		<polygon class="st1" points="205.2,112.9 205.2,181.1 173.8,181.1 209.8,216.5 240.2,216.5 240.2,132.8 		"/>
		<polygon class="st0" points="240.2,71.5 213.8,56.2 213.8,7.5 176.6,7.5 176.6,34.5 122.3,3 86.9,23.7 240.2,111.5 		"/>
	</g>
</g>
</svg>
